<?xml version="1.0" standalone="no"?><!DOCTYPE svg PUBLIC "-//W3C//DTD SVG 1.1//EN" "http://www.w3.org/Graphics/SVG/1.1/DTD/svg11.dtd"><svg t="1598878992009" class="icon" viewBox="0 0 1024 1024" version="1.1" xmlns="http://www.w3.org/2000/svg" p-id="1143" xmlns:xlink="http://www.w3.org/1999/xlink" width="200" height="200"><defs><style type="text/css"></style></defs><path d="M475.08 128.493v274.28c0 41.264-31.555 72.818-70.391 72.818H144.972c-38.836 0-70.39-31.554-70.39-72.818v-274.28c0-41.263 31.554-72.818 70.39-72.818h262.144c36.409 0 67.963 33.982 67.963 72.818zM632.85 475.591h262.144c38.836 0 70.39-31.554 70.39-72.818v-274.28c0-41.263-31.554-72.818-70.39-72.818H632.851c-38.836 0-70.39 31.555-70.39 72.818v274.28c2.427 38.836 31.554 72.818 70.39 72.818zM404.689 548.41H144.972c-38.836 0-70.39 33.982-70.39 72.818V893.08c0 41.263 31.554 72.817 70.39 72.817h262.144c38.836 0 70.39-31.554 70.39-72.817V621.227c-2.427-38.836-33.981-72.818-72.817-72.818z m497.588 0H642.56c-38.836 0-70.39 33.982-70.39 72.818V893.08c0 41.263 31.554 72.817 70.39 72.817h262.144c38.836 0 70.39-31.554 70.39-72.817V621.227c-2.427-38.836-33.981-72.818-72.817-72.818z" p-id="1144"></path></svg>