<?xml version="1.0" standalone="no"?><!DOCTYPE svg PUBLIC "-//W3C//DTD SVG 1.1//EN" "http://www.w3.org/Graphics/SVG/1.1/DTD/svg11.dtd"><svg t="1598879566051" class="icon" viewBox="0 0 1024 1024" version="1.1" xmlns="http://www.w3.org/2000/svg" p-id="19144" width="200" height="200" xmlns:xlink="http://www.w3.org/1999/xlink"><defs><style type="text/css"></style></defs><path d="M1017.155461 446.428172L529.688188 11.958105c-0.069794-0.04653-0.069794-0.139589-0.139588-0.186118a23.032148 23.032148 0 0 0-16.494741-6.793321 23.264796 23.264796 0 0 0-16.49474 6.793321c-0.04653 0.04653-0.069794 0.139589-0.139589 0.186118L7.160868 446.428172a23.241531 23.241531 0 1 0 32.896422 32.896422l42.20234-37.479587v512.360605c0 38.479973 31.314416 69.794388 69.794388 69.794388h221.248211a23.032148 23.032148 0 0 0 21.752584-15.773532 23.101943 23.101943 0 0 0 2.000773-9.305918V782.860389c0-64.141043 51.647847-116.32398 115.114211-116.323981s115.114211 52.182938 115.114211 116.323981v217.874815a23.264796 23.264796 0 0 0 23.264796 23.264796c0.255913 0 0.488561-0.139589 0.721209-0.139589s0.488561 0.139589 0.721208 0.139589h221.271476c38.479973 0 69.794388-31.314416 69.794388-69.794388V442.589481l41.201954 36.735113a23.241531 23.241531 0 1 0 32.896422-32.896422z m-120.627968 507.800705a23.264796 23.264796 0 0 1-23.264796 23.264796h-199.449097V782.860389c0-89.778848-72.516369-162.853573-161.643803-162.853573-89.127434 0-161.643803 73.074725-161.643803 162.853573v194.610019H152.054018c-12.818903 0-23.264796-10.422629-23.264796-23.264796V400.52673L513.030594 59.32523l384.241373 342.457799c-0.209383 1.233034-0.744473 2.373009-0.744474 3.652572v548.793276z" p-id="19145"></path></svg>